<?xml version="1.0" standalone="no"?>
<!DOCTYPE svg PUBLIC "-//W3C//DTD SVG 20010904//EN"
 "http://www.w3.org/TR/2001/REC-SVG-20010904/DTD/svg10.dtd">
<svg version="1.0" xmlns="http://www.w3.org/2000/svg"
 width="512.000000pt" height="512.000000pt" viewBox="0 0 512.000000 512.000000"
 preserveAspectRatio="xMidYMid meet">
<metadata>
Created by potrace 1.14, written by Peter Selinger 2001-2017
</metadata>
<g transform="translate(0.000000,512.000000) scale(0.100000,-0.100000)"
fill="#000000" stroke="none">
<path d="M515 4760 c-169 -14 -261 -95 -304 -265 -29 -119 -35 -176 -34 -325
1 -214 52 -406 153 -583 l49 -86 -24 -64 c-33 -89 -57 -182 -71 -274 -3 -26
-8 -57 -10 -68 -6 -27 -6 -274 0 -283 2 -4 7 -27 10 -52 11 -80 17 -103 47
-194 55 -164 141 -297 280 -430 106 -101 155 -122 189 -81 9 11 23 6 71 -25
34 -22 73 -45 89 -52 23 -10 28 -17 24 -38 -8 -36 25 -73 83 -95 26 -10 49
-19 51 -20 2 -2 -12 -23 -31 -48 -62 -81 -80 -132 -80 -216 0 -48 6 -90 17
-113 27 -63 29 -92 21 -330 -3 -104 -1 -147 10 -178 14 -40 14 -41 -11 -50
-68 -26 -143 -2 -199 62 -31 37 -86 180 -99 260 -3 15 -7 31 -10 36 -3 5 -8
23 -11 40 -12 71 -60 202 -103 286 -55 105 -171 230 -265 285 -102 60 -215 52
-287 -21 -49 -49 -64 -86 -64 -158 0 -81 33 -146 97 -188 64 -42 87 -63 113
-109 25 -41 58 -128 68 -174 19 -90 80 -299 104 -357 80 -191 238 -341 412
-391 25 -8 57 -17 73 -22 26 -8 196 -6 227 3 8 2 31 8 50 12 53 13 168 70 239
120 l65 45 35 -28 c144 -112 362 -198 576 -225 139 -18 1796 -15 1850 3 87 30
147 84 190 169 22 44 27 68 27 127 0 40 -5 82 -11 93 -27 50 -41 49 410 50
231 1 430 4 442 8 43 12 99 58 120 98 l22 41 2 931 c3 1053 8 987 -76 1073
-78 80 -89 82 -509 82 -199 0 -364 3 -366 8 -3 4 -8 30 -11 57 -4 27 -9 63
-11 79 -9 58 -48 200 -70 257 l-22 57 54 98 c56 102 114 261 134 373 40 216 2
549 -75 660 -54 78 -143 123 -255 130 -243 15 -456 -27 -662 -131 -68 -34
-185 -112 -232 -153 -16 -14 -30 -26 -32 -26 -2 0 -38 11 -81 25 -72 22 -143
40 -203 51 -14 3 -41 9 -60 14 -19 5 -60 11 -90 15 -30 3 -84 10 -120 14 -66
8 -418 7 -455 -2 -11 -3 -49 -8 -85 -12 -36 -4 -94 -14 -130 -22 -36 -8 -76
-17 -90 -19 -14 -3 -69 -18 -123 -34 l-98 -29 -85 64 c-134 103 -381 212 -518
229 -17 2 -51 7 -76 10 -75 10 -171 13 -255 6z"/>
</g>
</svg>
